<svg xmlns="http://www.w3.org/2000/svg" width="515.071" height="202.093" viewBox="0 0 515.071 202.093"><defs><style>.a{fill:#fff;}</style></defs><g transform="translate(-93.124 -861.737)"><g transform="translate(93.124 861.737)"><g transform="translate(0 0)"><path class="a" d="M199.2,1019.932s2.013-19.12-24.03-33.5c-20.678-11.418-21.931-29.325-16.674-39.526l-16.943,13.459s7.7-19.911,29.766-32.7l-13.149-15.528s12.707-9.775,44.313-4.562c0,0,14.663-5.539,32.257,9.124l-6.191.977,10.426,7.82s-6.517-2.281-17.595-.326c0,0-10.339-27.184-48.389-11.356,0,0,3.044,2.739,9.288,8.1l15.966-3.91S169.9,932.345,169.9,955.153c0,24.712,32.3,21.674,37.033,47.6,4.418-25.925-24.326-29.027-24.326-43.689,0-6.72,3.715-11.379,10.3-13.424,0,0-8.356,8.427-2.134,16.272,7.913,9.976,22.941-6.669,35.389-.089,0,0-7.38-.712-16.449,7.2,14.016-2.072,8.367,6.8,13.531,11.646,3.157,2.959,8.554,3.066,16.877-3.2a31.8,31.8,0,0,1,22.809-6.354s6.679-4.236,6.679-11.73-4.562-8.96-4.562-8.96-9.938,1.466-17.921-4.235c12.142,1.844,19.2-12.834,26.907-2.723a.775.775,0,0,0,1.395-.506c-.629-8.768-8.078-7.87-15.1-13.552-7.657-6.191-13.522-10.427-13.522-10.427V914.75l-4.562-2.443s5.865-1.467,13.033,3.747c0,0-8.471-17.6-39.426-21.179l-6.517,7.168a206.054,206.054,0,0,0-38.449-17.269s23.513.862,38.449,6.191l-6.842-10.752s25.415,2.607,42.358,20.527c0,0,.346-33.039-47.909-39l16.14,11.306s-42.626-21.975-81.87,8.713l26.315-4.151s-42.523,10.645-57.512,42.577L130.8,904.649s-44.864,29.186-36.677,83.6c0,0,4.42-36.677,42.542-57.531,0,0-30.628,29.325-30.628,65.493,0,22.872,14.593,38.457,14.593,38.457s-8.547-23.09.854-41.683c.34,39.15,23.816,40.529,32.36,63.54-1.937-30.664-27.88-33.774-17.746-76.769,5.442,48.535,31.139,43.9,33.6,83.392,10.4-32.681-17.713-51.152-15.558-72.634,15.762,23.128,33.11,36.8,33.1,73.318a66.346,66.346,0,0,0-10.5-65.341C192.723,1004.264,199.2,1019.932,199.2,1019.932Z" transform="translate(-93.124 -861.737)"/><path class="a" d="M315.918,1067.676s2.651,5.144,11.611,3.817c6.761-1,16.748-8.17,26.713-7.466,16.442,1.161,18.09,18.959.332,30.363l-.343-6.656a22.552,22.552,0,0,1-19.968,11.072s8.55-7.348,7.13-14.072C341.393,1084.735,316.819,1088.577,315.918,1067.676Z" transform="translate(-186.945 -946.903)"/><path class="a" d="M402.128,1024.336c5.614,4.966,4.966,21.808-1.943,17.058C403.769,1034.063,402.128,1024.336,402.128,1024.336Z" transform="translate(-222.431 -930.209)"/></g></g><g transform="translate(296.271 897.436)"><path class="a" d="M483.252,993.226c5.294-2.579,10.656-7.331,12.625-11.947h0l.018-.044c.105-.25.2-.5.3-.747.032-.084.063-.17.094-.254q.108-.293.206-.587c.026-.077.053-.154.078-.232.083-.259.163-.519.236-.781.019-.068.036-.136.054-.2q.082-.309.157-.623c.022-.093.044-.186.065-.279.049-.22.1-.444.139-.67.012-.061.025-.12.036-.181.052-.278.1-.563.141-.853.015-.1.028-.2.042-.293q.045-.322.085-.655c.012-.1.025-.207.036-.313.034-.306.065-.617.092-.939.007-.077.012-.159.018-.237q.032-.393.058-.805c.008-.13.016-.264.024-.4q.021-.377.039-.771c.005-.122.012-.242.016-.366q.022-.545.038-1.124c0-.152.008-.312.012-.469s.008-.309.011-.47h0c.043-2.163.045-4.678.045-7.728V944.965h0c0-10.589,0-12.489.136-14.661a13.433,13.433,0,0,1,.2-1.765q.055-.281.126-.536c.015-.055.034-.1.05-.156.035-.113.071-.226.111-.331.023-.058.049-.11.073-.165.04-.092.082-.184.129-.269.029-.053.061-.1.093-.152.049-.077.1-.153.152-.223a2.227,2.227,0,0,1,.468-.453,2.1,2.1,0,0,1,.266-.156c.041-.021.079-.046.122-.064a2.39,2.39,0,0,1,.45-.143h0a8.34,8.34,0,0,1,1.765-.136c.407,0,.747-.068.747-.2a.091.091,0,0,0,0-.021h0c-.034-.129-.375-.251-1.083-.251h0c-2.036,0-6.312.2-6.652.2s-4.615-.2-7.67-.2c-.772,0-1.056.122-1.083.251a.087.087,0,0,0,0,.021h0c0,.135.271.2.882.2a12.237,12.237,0,0,1,1.9.135,3.138,3.138,0,0,1,2.742,2.647v0a8.3,8.3,0,0,1,.177,1.041c.027.236.053.473.068.723.136,2.172.136,4.073.136,14.661v19.616c0,.193,0,.378,0,.568,0,.424,0,.842,0,1.252,0,.24,0,.48,0,.715q0,.9-.005,1.745c0,.151,0,.3,0,.447,0,.55-.007,1.088-.012,1.608,0,.065,0,.133,0,.2-.006.562-.015,1.1-.024,1.629,0,.132,0,.265-.008.393,0,.25-.01.493-.017.735,0,.145-.007.292-.011.434-.008.3-.017.585-.028.87,0,.077,0,.158-.008.234-.013.353-.028.7-.044,1.033-.006.115-.012.224-.018.337-.012.221-.024.442-.036.655-.008.131-.017.258-.026.385-.013.191-.027.38-.04.565-.01.13-.021.257-.031.384-.015.178-.031.353-.047.526-.012.122-.023.244-.036.363-.018.177-.038.349-.058.52-.013.106-.024.214-.038.318q-.045.359-.1.7c0,.027-.007.056-.012.084h0c-.683,4.477-2.137,6.938-5.235,9.3a21.621,21.621,0,0,1-2.85,1.968c-.679.339-1.018.611-.883.747A.688.688,0,0,0,483.252,993.226Z" transform="translate(-460.289 -924.195)"/><path class="a" d="M572.174,975.806c.8,0,.988-.169,1.014-.251h0l0-.009a.105.105,0,0,0,0-.012c0-.136-.2-.2-.746-.2h0a10.047,10.047,0,0,1-2.987-.339c-.155-.053-.3-.106-.439-.161l-.122-.049c-.1-.042-.2-.086-.3-.13l-.1-.048c-.123-.06-.241-.121-.353-.186-.02-.011-.038-.023-.057-.035q-.138-.083-.267-.174l-.095-.07q-.118-.088-.229-.185c-.021-.019-.045-.037-.066-.057q-.138-.126-.268-.268c-.021-.024-.042-.05-.064-.074-.067-.076-.132-.157-.2-.241l-.076-.1c-.071-.1-.141-.2-.21-.307-.012-.019-.024-.036-.036-.055-.08-.127-.16-.265-.24-.409-.023-.041-.046-.085-.068-.128q-.092-.171-.185-.357c-.024-.047-.047-.094-.071-.144-.082-.168-.164-.343-.25-.531l-.027-.06c-.076-.168-.154-.347-.234-.533-.064-.15-.132-.31-.2-.473-.043-.1-.086-.2-.132-.315-.077-.186-.158-.385-.24-.588l-.123-.3c-.167-.411-.349-.864-.541-1.341-.1-.246-.2-.489-.3-.754-4.141-10.318-14.8-38.35-15.679-40.59-1.018-2.511-1.358-2.919-1.63-2.919l-.023,0,0,.042h0l0-.042c-.271.027-.68.544-1.538,2.985l-.57,1.559h0l-14.77,40.388q-.146.4-.291.777l-.01.026q-.136.357-.273.692c-.045.111-.09.214-.135.321s-.1.24-.149.355-.095.21-.142.314c-1.209,2.665-2.492,4.1-4.566,4.37a13,13,0,0,1-2.036.135c-.465,0-.669.065-.678.195h0v.009c0,.068.2.271,1.154.271,1.833,0,7.195-.2,7.806-.2.746,0,2.783.2,5.294.2.814,0,1.018-.2,1.018-.271h0a.107.107,0,0,0-.034-.061c-.007-.009-.005-.019-.015-.027a1.173,1.173,0,0,0-.629-.115,8.715,8.715,0,0,1-2.036-.2,2.307,2.307,0,0,1-.371-.127c-.032-.014-.061-.031-.092-.047a1.756,1.756,0,0,1-.219-.13c-.031-.022-.06-.046-.089-.07a1.418,1.418,0,0,1-.168-.165c-.023-.026-.047-.051-.067-.078a1.531,1.531,0,0,1-.152-.249c-.007-.015-.017-.027-.024-.042a2.014,2.014,0,0,1-.119-.354c-.006-.025-.009-.054-.014-.08a2.785,2.785,0,0,1-.048-.328c0-.043-.006-.09-.008-.135-.005-.107-.007-.219,0-.337,0-.05,0-.1.006-.153.008-.131.02-.268.038-.411,0-.04.007-.078.013-.119.031-.23.075-.478.129-.739.011-.052.023-.105.035-.158.054-.248.116-.507.189-.781.007-.026.012-.05.02-.076.078-.292.17-.6.267-.927.025-.083.051-.168.078-.253.1-.316.2-.642.317-.987,0-.015.008-.027.013-.041l4.14-12.218c.081-.2.114-.285.157-.317h0a.177.177,0,0,1,.114-.022h15.219a.325.325,0,0,1,.169.023h0c.037.024.054.075.089.18l6.38,16.9c.475,1.357-.068,1.764-.407,1.968-.259.13-.456.2-.474.321h0a.1.1,0,0,0,0,.019c0,.135.2.407,2.037.475C565.861,975.873,570.681,975.806,572.174,975.806Zm-19.558-22.527c-.009.043-.059.06-.2.06H539.05a.123.123,0,0,1-.093-.027c-.034-.036-.02-.11.025-.244h0l6.041-18.53c.236-.707.355-1.079.48-1.094.029,0,.058.019.089.053.009.01.019.025.03.039a.976.976,0,0,1,.089.155l.01.02c.04.087.084.2.135.327l.012.032c.051.135.108.288.173.467l6.516,18.53a.615.615,0,0,1,.059.212l.025.025h0Z" transform="translate(-476.653 -923.405)"/><path class="a" d="M575.274,975.011h0Z" transform="translate(-499.311 -945.137)"/><path class="a" d="M592.059,925.56h0c.006.131.211.2.678.2a17.858,17.858,0,0,1,2.512.135,4.437,4.437,0,0,1,.569.128c.039.011.078.021.116.034a3.831,3.831,0,0,1,.507.2l.072.039a3.8,3.8,0,0,1,.431.26c.023.016.046.03.069.047a4.115,4.115,0,0,1,.431.366l.078.078a6.334,6.334,0,0,1,.809,1.028l.064.1c.128.205.255.423.382.658.009.017.018.036.028.054q.188.353.375.751c.013.029.027.056.041.086.124.266.248.55.375.847l.085.2c.12.288.242.586.367.9l.023.056,16.63,41.608c1.247,3.149,1.732,4.2,2.376,4.272h0a.64.64,0,0,0,.068,0h0c.542,0,.95-1.154,2.85-5.226,1.561-3.326,4.616-10.657,8.756-20.567,3.462-8.349,6.855-16.494,7.6-18.394.087-.218.17-.427.255-.636l.091-.228c.065-.16.128-.312.192-.468s.119-.291.178-.431l.17-.4q.1-.232.2-.456c.049-.111.1-.223.148-.33.081-.177.16-.346.24-.512.035-.073.07-.149.105-.221.115-.235.231-.462.347-.677.019-.034.037-.065.056-.1q.148-.268.3-.515c.035-.057.07-.111.1-.166.087-.137.174-.269.263-.394.038-.053.075-.106.113-.157q.139-.188.282-.357c.031-.037.061-.074.091-.109a5.314,5.314,0,0,1,.5-.5c.027-.024.054-.045.081-.067a4.136,4.136,0,0,1,.506-.365c.018-.011.036-.025.054-.035a3.832,3.832,0,0,1,.58-.272c.043-.016.089-.031.133-.046a4,4,0,0,1,.645-.163c.257-.032.482-.048.706-.057.251-.01.5-.011.787-.011.119,0,.221,0,.306-.013.258-.026.372-.089.372-.191h0c0-.068-.2-.271-1.154-.271-1.833,0-4.887.2-5.295.2-.815,0-4.616-.2-7.127-.2-.814,0-1.018.2-1.018.271l.035,0h0l-.034,0c0,.136.272.2.678.2a14.4,14.4,0,0,1,2.308.135c.018,0,.032.012.05.017a2.459,2.459,0,0,1,.321.108c.033.014.058.033.089.049a1.689,1.689,0,0,1,.212.118,1.363,1.363,0,0,1,.1.09,1.415,1.415,0,0,1,.133.115,21.8,21.8,0,0,1,.178.239,1.289,1.289,0,0,1,.067.143c.019.042.043.082.058.125a1.619,1.619,0,0,1,.042.16c.011.045.027.088.035.135s.013.113.018.17.013.1.016.147,0,.12,0,.18,0,.1,0,.154a12.344,12.344,0,0,1-.712,2.8c-1.428,4.542-9.8,26.5-13.973,36.376l-.185.437c-.127.3-.25.585-.368.858h0l-13.846-36.043c-.156-.412-.329-.851-.5-1.3l-.08-.213c-.032-.086-.064-.173-.1-.26s-.067-.182-.1-.273-.056-.164-.084-.245-.065-.189-.1-.284-.049-.158-.073-.237c-.03-.094-.059-.189-.085-.282-.022-.077-.042-.153-.061-.229-.024-.093-.048-.184-.069-.274-.018-.075-.033-.148-.048-.221-.018-.088-.034-.176-.048-.261s-.023-.153-.032-.228-.016-.131-.02-.194-.008-.15-.01-.223,0-.121,0-.18.01-.137.018-.2.012-.111.022-.164a1.767,1.767,0,0,1,.049-.182c.015-.048.028-.1.047-.144a1.3,1.3,0,0,1,.085-.16c.024-.04.045-.082.072-.119a1.186,1.186,0,0,1,.13-.135,1.085,1.085,0,0,1,.1-.093,1.353,1.353,0,0,1,.187-.109c.038-.02.07-.044.112-.062a1.777,1.777,0,0,1,.328-.094c.018,0,.031-.01.049-.014h0a14.4,14.4,0,0,1,2.308-.135,1.174,1.174,0,0,0,.63-.115.112.112,0,0,0,.047-.088h0a.061.061,0,0,0-.006-.021h0c-.036-.081-.269-.25-1.011-.25-2.511,0-6.312.2-6.991.2-.815,0-6.516-.2-8.349-.2-.95,0-1.154.2-1.154.272v.006Z" transform="translate(-506.379 -924.195)"/><path class="a" d="M691.316,925.758a12.242,12.242,0,0,1,1.9.135,3.139,3.139,0,0,1,2.742,2.647c.05.2.083.415.118.63.014.089.033.174.045.265.037.28.064.569.082.87.135,2.172.135,4.072.135,14.661v11.946c0,6.516,0,11.878-.339,14.729-.079.57-.163,1.152-.276,1.7-.278,1.337-.728,2.454-1.692,2.647a10.254,10.254,0,0,1-2.036.136c-.475,0-.543.135-.543.2a.113.113,0,0,0,.024.068h0c.064.086.289.2,1.062.2,2.037,0,6.312-.2,6.652-.2s4.548.2,7.873.2c1.083,0,1.382-.117,1.464-.2h0a.1.1,0,0,0,.03-.068c0-.047-.044-.124-.242-.168a1.648,1.648,0,0,0-.369-.035h0a23.061,23.061,0,0,1-2.919-.136c-1.446-.193-2.071-1.311-2.384-2.647-.08-.342-.136-.7-.184-1.057-.029-.214-.057-.427-.079-.64-.127-1.069-.206-2.491-.256-4.2q-.012-.426-.022-.875c-.013-.6-.024-1.227-.032-1.882q-.006-.493-.01-1-.01-1.024-.013-2.122c-.005-1.464-.005-3.021-.005-4.65V944.967c0-5.294,0-8.416.017-10.486,0-.388.007-.74.012-1.061.009-.643.021-1.168.036-1.633.018-.543.041-1.005.071-1.48a13.483,13.483,0,0,1,.2-1.765c.044-.225.1-.435.158-.636.016-.055.034-.108.051-.162a4.242,4.242,0,0,1,.181-.459c.016-.034.029-.07.045-.1a2.94,2.94,0,0,1,.285-.456c.026-.033.054-.062.081-.094a2.246,2.246,0,0,1,.295-.289c.035-.028.068-.058.105-.084a2.076,2.076,0,0,1,.265-.155c.042-.021.079-.046.123-.065a2.378,2.378,0,0,1,.45-.143h0a8.368,8.368,0,0,1,1.765-.135c.407,0,.747-.068.747-.2a.074.074,0,0,0,0-.022h0c-.034-.128-.374-.25-1.083-.25h0c-2.036,0-6.313.2-6.652.2s-4.615-.2-7.67-.2c-.773,0-1.056.122-1.083.251a.111.111,0,0,0,0,.021h0C690.434,925.69,690.7,925.758,691.316,925.758Z" transform="translate(-547.806 -924.196)"/><path class="a" d="M736.562,925.361a12.244,12.244,0,0,1,1.9.135,3.89,3.89,0,0,1,.723.182c.072.026.133.061.2.09a2.958,2.958,0,0,1,.4.2c.069.043.131.094.2.143a2.709,2.709,0,0,1,.293.252c.058.058.112.12.164.183a3.045,3.045,0,0,1,.226.308c.044.069.088.139.128.213a3.976,3.976,0,0,1,.174.373c.031.075.064.147.092.225.052.15.1.308.136.469.017.067.038.13.053.2a10.222,10.222,0,0,1,.2,1.574c.136,2.172.136,4.073.136,14.661v11.947c0,6.041-.068,9.5-.136,12.15,0,.079-.006.151-.008.229-.008.242-.016.484-.026.712-.212,4.354-1.064,5.8-3.223,6.119a6.669,6.669,0,0,1-1.018.068c-.27,0-.474.067-.475.2h0c0,.136.339.2,1.085.2,1.765,0,3.394-.2,5.023-.2,2.647,0,5.77.136,8.485.2,2.647.068,4.887.2,9.91.2,2,0,2.749-.059,3.1-.384h0a1.516,1.516,0,0,0,.357-.769h0a63.282,63.282,0,0,0,1.086-6.516c.067-.467,0-1-.129-1.016l-.008,0c-.135,0-.271.271-.407,1.018-.408,2.919-1.425,3.666-3.462,4.276-.1.029-.2.056-.3.083h0a27.658,27.658,0,0,1-6.283.6,16.443,16.443,0,0,1-5.634-.611c-1.764-.679-2.1-1.9-2.24-4.955-.068-1.425,0-9.3,0-11.607v-5.974c0-.2,0-.321.059-.39h0c.059-.068.178-.086.417-.086l.248,0h.059l.342,0h.071l.412.006h.047l.459.008.189,0,.507.01.159,0,.486.011.172,0,.557.014.222.006.6.016.211.006.5.015.183.006c1.249.04,2.462.089,3.35.145l.08.005c.145.009.28.019.405.029l.073.006c.141.011.27.024.379.036,2.444.271,3.8,1.357,4.072,2.443a3.951,3.951,0,0,1,.136,1.221c0,.611,0,.883.2.883.136,0,.271-.136.339-.951.068-.951.068-1.9.271-4,.2-2.24.544-3.054.544-3.6,0-.136,0-.408-.136-.408,0,.012-.005.025-.006.037h0c0-.012.006-.025.006-.037-.135,0-.271.272-.339.407-.475.814-1.9.95-4.072,1.086-1.561.136-9.91.136-10.792.136-.246,0-.343-.025-.381-.149l-.038.109h0l.038-.108a1.537,1.537,0,0,1-.026-.394V928.144c0-.327.025-.481.118-.552a.253.253,0,0,1,.068-.034h0a.715.715,0,0,1,.222-.025c.746,0,8.145.136,9.3.2.446.036.862.078,1.254.127q.512.064.964.147c.085.016.159.036.241.053.214.045.424.09.617.144.1.028.192.061.288.092.156.05.307.1.447.159.091.038.175.079.26.12a3.71,3.71,0,0,1,.351.193c.075.047.147.095.215.146a2.748,2.748,0,0,1,.276.242c.054.055.111.108.159.167a2.187,2.187,0,0,1,.213.32c.031.056.07.107.1.166a2.471,2.471,0,0,1,.184.566l0,0c.136.747.136.951.2,1.426.068.678.135.882.272.882h0c.068,0,.2-.136.271-.951.136-1.765.2-2.579.272-3.6a19.5,19.5,0,0,1,.543-3.19c.058-.354.067-.554-.021-.6h0a.1.1,0,0,0-.047-.011,3.353,3.353,0,0,0-.678.271c-.024.01-.064.02-.1.03s-.041.013-.07.02c-.049.012-.112.025-.175.037l-.086.018-.233.039-.1.017c-.089.014-.186.026-.286.04l-.113.016-.324.039-.128.015-.347.035-.146.014-.358.03-.164.012-.357.024c-.134.008-.269.016-.4.023-1.561.068-15.069.068-15.544.068-4.276-.2-6.109-.2-7.67-.2-.771,0-1.055.122-1.083.25h0a.091.091,0,0,0,0,.022C735.68,925.293,735.951,925.361,736.562,925.361Z" transform="translate(-566.86 -923.8)"/><path class="a" d="M817.574,976.325h0c0-.068-.068-.2-.542-.2h0a16.859,16.859,0,0,1-3.054-.136c-1.9-.271-2.444-2.376-2.647-4.344-.023-.186-.043-.384-.062-.592-.005-.058-.01-.123-.016-.183-.013-.155-.026-.311-.039-.478-.005-.069-.009-.142-.014-.214-.011-.165-.022-.332-.033-.507,0-.078-.008-.159-.013-.238-.009-.177-.019-.357-.027-.543s-.017-.382-.025-.581c0-.073-.005-.149-.007-.224-.007-.193-.014-.388-.02-.589,0-.077,0-.157-.007-.236-.006-.2-.011-.4-.016-.611,0-.088,0-.179-.006-.268,0-.209-.009-.42-.012-.637,0-.084,0-.171,0-.256,0-.232-.008-.466-.01-.7,0-.073,0-.147,0-.222,0-.26-.006-.524-.008-.792,0-.055,0-.111,0-.166,0-.3,0-.607-.006-.918v-.072c-.01-1.761-.01-3.674-.01-5.7v-1.9a.761.761,0,0,1,.015-.218h0c.021-.054.07-.054.189-.054l8.959.135h0c.135,0,.27.069.472.339,1.425,1.833,4.615,6.38,7.466,10.114,1.9,2.5,3.436,4.566,4.856,6.215h0l.028.032c.237.274.468.521.7.771.127.137.257.288.382.418.235.244.469.459.7.678.117.11.236.235.354.339.257.227.516.424.775.621.094.072.188.158.284.226a9.9,9.9,0,0,0,1.085.678c1.765.951,3.462,1.29,7.263,1.29h4.819c1.461,0,1.623-.13,1.629-.263h0v-.008h0c0-.068-.136-.2-.611-.2h0a16.319,16.319,0,0,1-2.647-.2c-2.036-.272-4.615-1.494-8.28-5.363-.466-.5-.943-1.026-1.429-1.574l-.121-.134c-.462-.524-.935-1.075-1.417-1.642l-.2-.236q-.7-.834-1.436-1.727l-.248-.3q-.735-.9-1.5-1.851l-.232-.29c-.38-.476-.771-.97-1.162-1.464l-.717-.907-1.219-1.555-.584-.745-1.8-2.314-2.053-2.633h0c.014-.013.027-.026.041-.039.318-.294.621-.585.917-.875.107-.105.212-.211.317-.315q.315-.316.613-.63c.1-.1.2-.209.3-.313q.352-.379.682-.756h0c3.449-3.946,4.967-7.627,5.279-11.276h.005c0-.043,0-.086.005-.128.035-.449.059-.9.059-1.345a11.88,11.88,0,0,0-4.684-9.232h0c-.3-.218-.616-.414-.931-.6-.078-.046-.155-.091-.233-.135-.316-.179-.636-.349-.962-.5l-.036-.016c-.32-.148-.646-.281-.975-.405l-.244-.091c-.339-.121-.68-.236-1.027-.335l-.06-.016c-.334-.095-.672-.178-1.01-.254l-.245-.054c-.356-.075-.713-.144-1.073-.2l-.074-.01c-.344-.054-.69-.1-1.036-.14l-.235-.026c-.366-.039-.734-.073-1.1-.1h-.015c-1.058-.074-2.118-.1-3.162-.1-2.1,0-7.263.2-8.009.2-.475,0-4.344-.2-7.67-.2-.771,0-1.055.122-1.083.25h0a.09.09,0,0,0,0,.021c0,.136.271.2.882.2a12.251,12.251,0,0,1,1.9.135,3.96,3.96,0,0,1,.747.188c.075.027.135.067.205.1a2.989,2.989,0,0,1,.408.206c.074.048.135.109.2.163a2.784,2.784,0,0,1,.29.248c.064.067.117.145.175.218a3.045,3.045,0,0,1,.212.291c.052.084.094.177.14.267.054.108.108.215.153.33.039.1.072.2.1.31.038.12.076.24.107.366s.05.23.073.348.049.262.068.4.033.253.046.382c.019.183.038.366.05.557,0,.02,0,.04,0,.059.136,2.172.136,4.056.136,14.644v11.947q0,1.06,0,2.078v.039c0,.651,0,1.286,0,1.907,0,.055,0,.11,0,.165q0,.917-.008,1.786c0,.045,0,.088,0,.131-.007,1.167-.021,2.263-.042,3.28l0,.155c-.01.457-.022.893-.036,1.316,0,.1-.006.2-.01.3q-.02.572-.045,1.1c-.007.128-.013.252-.02.375-.014.25-.029.486-.045.717-.035.509-.077.976-.125,1.385-.271,1.968-.611,4.073-1.969,4.344a10.236,10.236,0,0,1-2.036.136c-.475,0-.543.135-.543.2a.165.165,0,0,0,0,.02h0c.016.081.153.251,1.083.251,2.037,0,6.313-.2,6.652-.2s4.412.2,7.67.2c1.426,0,1.494-.2,1.494-.271h0Zm2.142-48.38c.154.044.3.1.453.146.189.063.377.13.56.2.149.058.3.119.442.184.19.085.376.178.559.274.122.063.246.122.365.189q.412.237.8.512c.112.079.218.167.327.251.164.126.325.255.48.392q.164.143.322.294c.157.15.308.308.457.469.085.092.172.18.254.276q.321.376.611.787c.066.094.126.194.189.291.134.2.265.412.387.629.068.119.134.241.2.364.116.222.226.45.331.684.05.111.1.219.15.333.142.342.274.694.392,1.059.028.086.05.177.077.264q.135.443.246.907c.032.136.062.274.091.413q.091.432.162.882c.021.132.045.261.063.4a21.236,21.236,0,0,1,.193,2.887c0,5.159-1.765,8.824-4.14,10.453a7.317,7.317,0,0,1-3.242,1.176c-.277.038-.552.062-.824.079l-.211.013c-.275.013-.547.022-.81.022h0c-1.307,0-2.639-.052-3.822-.167a9.667,9.667,0,0,1-3.44-.782.613.613,0,0,1-.336-.5h0c0-.016,0-.03,0-.046V936.465h0v-7.829h0v-.095a.678.678,0,0,1,.1-.418h0a.943.943,0,0,1,.439-.261,20.537,20.537,0,0,1,4.548-.407A13.161,13.161,0,0,1,819.716,927.945Z" transform="translate(-593.8 -924.196)"/><path class="a" d="M503.7,1069.123a2.006,2.006,0,0,0-.508-.045h0a12.026,12.026,0,0,1-3.711-.538,3.1,3.1,0,0,1-.592-.273c-.047-.027-.093-.056-.137-.084a3.29,3.29,0,0,1-.477-.37l-.02-.016a3.946,3.946,0,0,1-.419-.487c-.032-.042-.063-.085-.093-.13a5.1,5.1,0,0,1-.319-.52c-.008-.015-.017-.029-.026-.044-.089-.172-.17-.351-.246-.535-.021-.052-.04-.107-.061-.16-.052-.135-.1-.27-.147-.409-.021-.065-.042-.132-.062-.2-.041-.134-.079-.27-.115-.407-.016-.062-.034-.123-.049-.185-.042-.174-.082-.347-.117-.521,0-.021-.009-.042-.014-.063-.039-.195-.073-.389-.1-.58-.011-.066-.02-.13-.031-.2-.02-.125-.038-.251-.056-.374-.01-.074-.02-.148-.03-.221-.015-.114-.029-.225-.042-.334-.009-.069-.017-.14-.025-.208-.01-.084-.019-.165-.028-.246s-.016-.138-.023-.2l-4.01-36.692c-.18-1.437-.479-1.677-.658-1.677l-.006.035h0l.006-.034h0c-.359,0-.658.3-1.2,1.5l-2.112,4.509h0l-13.982,29.844h0l-1.264,2.7L455,1024.9h0c-.538-1.138-.838-1.5-1.077-1.5a.371.371,0,0,0-.09.012h0c-.278.07-.586.484-.747,1.724l-.706,6.37h0l-3.544,32h0c-.115.939-.221,1.9-.412,2.74l0,.016a7.8,7.8,0,0,1-.218.778,2.433,2.433,0,0,1-1.76,1.852,7.694,7.694,0,0,1-1.8.18c-.37,0-.553.047-.591.141l.042,0h0l-.042,0a.111.111,0,0,0-.008.039c0,.06.18.239,1.018.239,1.616,0,4.489-.179,5.028-.179.479,0,3.532.179,5.747.179.718,0,.9-.179.9-.239h0c0-.12-.239-.18-.6-.18h0a9.006,9.006,0,0,1-2.155-.239l-.021-.006a1.824,1.824,0,0,1-.267-.083c-.034-.013-.066-.032-.1-.048a1.539,1.539,0,0,1-.178-.093c-.038-.023-.073-.049-.109-.075a1.741,1.741,0,0,1-.15-.119c-.036-.032-.071-.066-.105-.1a1.944,1.944,0,0,1-.13-.15c-.032-.041-.064-.082-.094-.126s-.075-.124-.11-.189c-.026-.048-.053-.094-.077-.145-.036-.081-.067-.171-.1-.261-.015-.046-.034-.086-.047-.135a3.453,3.453,0,0,1-.09-.445,4.366,4.366,0,0,1-.041-.6c0-1.017.06-1.855.12-2.813l2.455-28.193-.008-.026h0l.007.026c.658,1.616,7.542,16.4,8.081,17.478.3.6,5.447,10.954,7,13.887,1.138,2.155,1.556,2.753,1.855,2.753h0c.3,0,.718-.539,1.975-3.172l13.989-29.67h0l.856-1.814,0,.036h0l2.87,31.208c.021.193.042.382.06.567.082.852.094,1.592-.3,1.887-.17.17-.394.125-.417.273h0a.171.171,0,0,0,0,.026c0,.12.3.3,1.676.419,2.274.18,7.123.359,10.355.359.718,0,.9-.179.9-.239h0C503.848,1069.2,503.8,1069.153,503.7,1069.123Zm-30.678-7.109h0v-.059h0Z" transform="translate(-444.051 -965.517)"/><path class="a" d="M568.23,1069.732a1.211,1.211,0,0,0-.373-.045h0a20.289,20.289,0,0,1-2.574-.12c-1.275-.17-1.826-1.155-2.1-2.334-.071-.3-.12-.617-.163-.932-.025-.188-.05-.377-.07-.564-.131-1.1-.2-2.623-.246-4.471-.053-2.375-.053-5.286-.053-8.518v-10.535c0-4.668,0-7.422.015-9.248,0-.229,0-.442.006-.643,0-.1,0-.2,0-.293.017-1.228.046-1.967.094-2.745a11.882,11.882,0,0,1,.177-1.556l0-.005c.038-.2.085-.379.137-.554.015-.049.03-.1.046-.145a3.626,3.626,0,0,1,.159-.4c.014-.03.025-.061.04-.09a2.539,2.539,0,0,1,.251-.4c.023-.03.047-.055.071-.083a1.906,1.906,0,0,1,.261-.255c.031-.025.06-.052.092-.074a1.88,1.88,0,0,1,.234-.138c.037-.018.07-.04.108-.057a2.106,2.106,0,0,1,.392-.125h0a7.411,7.411,0,0,1,1.556-.119c.359,0,.658-.06.658-.18a.07.07,0,0,0,0-.018h0c-.03-.113-.331-.221-.955-.221-1.8,0-5.567.179-5.866.179s-4.07-.179-6.764-.179c-.681,0-.931.108-.955.221a.066.066,0,0,0,0,.018h0c0,.12.239.179.778.179a10.7,10.7,0,0,1,1.676.12,2.766,2.766,0,0,1,2.417,2.334c.044.176.074.365.1.555.013.079.03.154.04.235.032.247.056.5.072.767.12,1.915.12,3.591.12,12.929v10.535c0,5.746,0,10.475-.3,12.989-.07.5-.144,1.016-.244,1.5-.244,1.179-.642,2.165-1.492,2.334a9.051,9.051,0,0,1-1.8.12c-.419,0-.479.12-.479.179a.1.1,0,0,0,.021.06h0c.056.076.255.18.936.18,1.8,0,5.567-.18,5.866-.18s4.011.18,6.943.18c.955,0,1.219-.1,1.291-.18h0a.083.083,0,0,0,.026-.06C568.4,1069.829,568.36,1069.773,568.23,1069.732Z" transform="translate(-489.684 -966.126)"/><path class="a" d="M709.774,1068.709h0Z" transform="translate(-555.95 -984.595)"/><path class="a" d="M725.745,1024.374c-.021-.074-.156-.215-.955-.215-1.8,0-4.909.179-5.208.179s-3.172-.179-6.106-.179c-1.142,0-1.3.148-1.314.22h0a.076.076,0,0,0,0,.019c0,.06.06.179.538.179a20.3,20.3,0,0,1,2.574.12,3.9,3.9,0,0,1,.455.081c.048.012.09.028.135.041.09.026.181.052.264.084.049.02.092.045.138.066.071.034.142.066.207.1.046.027.086.06.129.09a2.046,2.046,0,0,1,.167.126c.04.035.077.074.114.112s.095.1.138.149.066.088.1.133.078.113.113.172.054.1.08.154.063.129.091.2.045.114.066.173.05.146.073.223c.015.049.028.1.041.151a6.846,6.846,0,0,1,.147.742c.006.042.011.085.017.127.036.276.064.568.085.882,0,.041,0,.084.007.125.02.328.034.673.045,1.042,0,.028,0,.059,0,.088.01.386.018.791.024,1.221l.658,30.407c-1.915-1.975-8.439-9.278-14.366-15.623-9.218-9.876-18.137-19.514-19.034-20.531-.6-.6-1.616-1.916-2.095-1.916a.446.446,0,0,0-.1.011h0c-.406.092-.561.813-.561,2.982.008,1.509.013,2.69.015,3.652h0c0,.639,0,1.184,0,1.66,0,.038,0,.074,0,.112v.452c0,.115,0,.226,0,.334,0,.049,0,.1,0,.145,0,.073,0,.143,0,.213v.187c0,.061,0,.121,0,.181v.184c0,.349-.006.68-.009,1.023,0,.044,0,.089,0,.134,0,.117,0,.236,0,.358,0,.343-.008.713-.012,1.133,0,.119,0,.246,0,.374,0,.073,0,.142,0,.219,0,.057,0,.119,0,.178,0,.12,0,.243,0,.372,0,.057,0,.117,0,.176,0,.131,0,.265,0,.406,0,.093,0,.192,0,.289,0,.116,0,.234,0,.356s0,.219,0,.332c0,.141,0,.288,0,.437,0,.093,0,.183,0,.28,0,.169,0,.345,0,.525,0,.131,0,.26,0,.4,0,.171,0,.356,0,.538,0,.114,0,.219,0,.338q0,.494,0,1.041c0,.127,0,.267,0,.4,0,.214,0,.426,0,.652s0,.437,0,.66,0,.445,0,.677c0,.151,0,.308,0,.464,0,.3,0,.6,0,.911q0,.306,0,.625c0,.293,0,.6,0,.907,0,.187,0,.37,0,.563v.36c0,.989,0,2.049,0,3.2v8.859q0,.5,0,.974c0,.094,0,.182,0,.274,0,.2,0,.4-.007.589,0,.117,0,.227-.008.34,0,.165-.007.33-.012.488,0,.118-.009.23-.013.344-.006.143-.011.285-.018.422-.006.114-.013.224-.019.334-.008.128-.016.255-.025.378-.008.106-.017.209-.026.311s-.022.23-.034.34-.023.194-.035.288-.028.2-.043.3-.028.18-.043.266c-.292,1.634-.866,2.477-1.986,2.608-.534.06-1.418.119-1.959.12a8.388,8.388,0,0,1-2.472-.3c-.2-.068-.377-.137-.549-.209l-.134-.058c-.151-.067-.295-.137-.428-.212l-.048-.025a3.822,3.822,0,0,1-.4-.272c-.032-.025-.063-.051-.095-.077a3.531,3.531,0,0,1-.307-.284c-.019-.02-.038-.037-.057-.057a4.292,4.292,0,0,1-.323-.4c-.026-.036-.051-.075-.077-.113-.086-.128-.173-.265-.258-.413-.022-.037-.043-.072-.065-.11-.1-.184-.2-.383-.31-.6-.025-.052-.05-.108-.076-.161-.089-.189-.181-.391-.276-.608-.028-.065-.056-.127-.084-.194-.057-.131-.116-.272-.175-.413-.039-.093-.077-.182-.117-.279-.068-.165-.14-.342-.213-.521l-.108-.266c-.1-.236-.2-.485-.3-.745l-.444-1.1c-3.651-9.1-13.049-33.82-13.827-35.795-.9-2.215-1.2-2.574-1.437-2.574h-.02s-.009,0-.014,0c-.24.037-.6.51-1.344,2.628l-.5,1.375h0l-13.072,35.746c-.093.251-.183.494-.273.73l-.078.2c-.065.169-.131.336-.2.5-.028.071-.057.139-.085.208q-.095.231-.19.45l-.084.192q-.1.219-.2.426c-.95,2-1.975,3.11-3.638,3.152-.109,0-.219-.005-.332-.015a4.41,4.41,0,0,1-.634-.108l-.056-.012a5.7,5.7,0,0,1-.652-.213l-.086-.032c-.22-.089-.448-.2-.682-.32l-.107-.057q-.351-.19-.724-.435l-.119-.079q-.377-.253-.778-.561l-.122-.1c-.273-.214-.555-.446-.845-.7l-.11-.1c-.3-.267-.611-.553-.932-.864l-.076-.076c-.336-.328-.682-.678-1.042-1.057l0-.005c-.387-.413-.784-.854-1.186-1.307q-.157-.177-.317-.359c-.373-.426-.752-.863-1.139-1.32l-.1-.115c-1.281-1.516-2.644-3.209-4.085-5.031l-.633-.8-1.056-1.346-.544-.7q-.733-.939-1.494-1.915c-.619-.8-1.25-1.6-1.9-2.434h0c.432-.4.834-.792,1.221-1.184.089-.089.174-.178.26-.267q.5-.52.957-1.033c.029-.032.062-.065.09-.1h0c3.042-3.479,4.38-6.726,4.655-9.943h0c0-.038,0-.076.005-.114.031-.4.051-.791.051-1.186a10.478,10.478,0,0,0-4.13-8.14h0c-.267-.192-.542-.365-.821-.53-.069-.041-.137-.081-.207-.12-.279-.158-.56-.308-.848-.442l-.032-.013c-.282-.131-.569-.247-.859-.357-.072-.027-.145-.055-.218-.081-.3-.108-.6-.208-.9-.3l-.056-.015c-.294-.083-.591-.157-.889-.223l-.216-.048c-.313-.066-.629-.127-.946-.178l-.067-.01c-.3-.048-.607-.087-.911-.122l-.209-.024c-.323-.035-.645-.064-.969-.087h-.014c-.933-.065-1.868-.087-2.789-.087-.527,0-1.274.015-2.086.035h-.021c-2.039.053-4.486.144-4.956.144-.419,0-3.831-.179-6.764-.179-.68,0-.93.107-.955.22h0c0,.006,0,.012,0,.019,0,.12.239.179.778.179a10.807,10.807,0,0,1,1.676.12,3.425,3.425,0,0,1,.658.166c.066.024.118.059.179.086a2.68,2.68,0,0,1,.362.182,2.287,2.287,0,0,1,.179.144,2.406,2.406,0,0,1,.257.219c.056.059.1.127.153.192a2.751,2.751,0,0,1,.188.257c.045.074.083.156.122.235.048.095.1.189.136.291s.063.181.092.274.067.211.094.323.045.2.065.307.043.231.06.351.029.224.041.337c.017.161.034.321.044.489l0,.053c.12,1.915.12,3.577.12,12.914v10.535c0,1.249,0,2.448,0,3.589,0,.027,0,.054,0,.081q0,.82-.007,1.6c0,.042,0,.082,0,.123-.008,1.028-.019,1.992-.038,2.887,0,.045,0,.092,0,.136-.009.406-.02.792-.031,1.166,0,.084-.006.168-.009.251-.011.341-.025.665-.04.977-.005.11-.012.216-.018.323-.012.225-.026.439-.041.648-.031.444-.067.852-.11,1.21-.239,1.736-.538,3.591-1.736,3.831a9.035,9.035,0,0,1-1.8.12c-.419,0-.479.119-.479.179a.065.065,0,0,0,0,.018h0c.014.071.135.222.956.222,1.8,0,5.566-.18,5.866-.18s3.891.18,6.764.18c1.257,0,1.317-.18,1.317-.24h0c0-.06-.06-.179-.479-.179h0c-.164,0-.348,0-.547.007s-.414,0-.643,0a10.106,10.106,0,0,1-1.5-.128c-1.676-.239-2.155-2.095-2.334-3.83-.02-.165-.038-.341-.056-.525,0-.044-.008-.092-.011-.137-.025-.281-.047-.584-.067-.9,0-.054-.007-.105-.01-.16q-.029-.519-.053-1.1c0-.035,0-.067,0-.1-.015-.386-.027-.794-.038-1.217,0-.072,0-.143-.006-.215-.009-.406-.017-.831-.023-1.268,0-.1,0-.207,0-.311q-.009-.64-.014-1.32c0-.133,0-.268,0-.4,0-.438-.005-.885-.007-1.344,0-.186,0-.376,0-.565q0-.511,0-1.038,0-1.157,0-2.379v-1.676a.673.673,0,0,1,.013-.192c.019-.047.062-.047.167-.047l7.9.12c.119,0,.239.06.419.3,1.257,1.616,4.07,5.626,6.585,8.919.594.783,1.137,1.5,1.661,2.188h0l.259.337c.177.232.358.468.529.688.222.287.436.558.649.826.1.128.208.266.308.39.3.371.589.718.875,1.05.1.113.193.216.29.325.2.22.39.435.582.637.11.117.221.226.331.337.178.179.358.35.535.512.11.1.221.2.331.3.187.161.376.308.565.45.1.074.2.153.3.222a8.7,8.7,0,0,0,.83.517c.014.007.027.018.041.025a10.24,10.24,0,0,0,4.2,1.048h0q.3.024.615.044h.022c.2.012.41.021.625.03l.068,0c.214.008.439.015.669.019l.079,0c.224,0,.458.007.7.008h.114c.247,0,.5,0,.769,0h.1c.269,0,.549-.008.837-.013h.184c1.616-.06,4.49-.179,5.268-.179,1.017,0,2.813.179,5.027.179.719,0,.9-.179.9-.24h0c0-.119-.24-.179-.6-.179a7.681,7.681,0,0,1-1.8-.18,2.06,2.06,0,0,1-.328-.112c-.028-.013-.053-.028-.079-.041a1.441,1.441,0,0,1-.2-.115c-.027-.019-.053-.039-.078-.06a1.35,1.35,0,0,1-.149-.146c-.02-.023-.04-.045-.058-.069a1.307,1.307,0,0,1-.135-.22c-.006-.013-.015-.024-.02-.036a1.753,1.753,0,0,1-.105-.312c-.005-.022-.008-.047-.013-.07a2.6,2.6,0,0,1-.043-.29c0-.038,0-.078-.006-.117,0-.1-.006-.2,0-.3,0-.044,0-.088,0-.133.007-.117.019-.24.034-.367,0-.034.006-.065.012-.1.027-.205.066-.424.115-.656l.029-.132c.049-.222.1-.455.17-.7,0-.019.009-.036.014-.056.069-.259.151-.537.238-.824.022-.072.044-.145.067-.218.086-.278.178-.565.279-.87l.013-.039,3.651-10.775c.072-.179.1-.251.138-.28h0a.155.155,0,0,1,.1-.019h13.408a.311.311,0,0,1,.161.02h0c.032.021.047.066.078.159l5.627,14.9c.418,1.2-.06,1.556-.359,1.735-.228.114-.4.174-.417.283h.041c-.013,0-.027,0-.04,0a.076.076,0,0,0,0,.017c0,.12.179.359,1.8.418,4.13.18,8.38.12,9.7.12.1,0,.18,0,.256-.007s.176.007.283.007c1.8,0,5.447-.179,5.747-.179s3.172.179,6.105.179c.958,0,1.22-.1,1.291-.181h0a.083.083,0,0,0,.025-.059c0-.06-.06-.179-.538-.179h0a20.255,20.255,0,0,1-2.574-.12,2.214,2.214,0,0,1-.432-.1c-.038-.013-.075-.028-.111-.042a2.005,2.005,0,0,1-.3-.151c-.028-.017-.057-.032-.084-.051a2.061,2.061,0,0,1-.331-.281c-.019-.02-.037-.044-.055-.065a2.742,2.742,0,0,1-.237-.311c-.024-.037-.049-.075-.072-.114a3.939,3.939,0,0,1-.219-.422c-.008-.017-.016-.031-.023-.048a5.717,5.717,0,0,1-.2-.565c-.015-.048-.029-.1-.043-.15q-.072-.251-.134-.529c-.012-.055-.025-.108-.037-.164-.049-.24-.094-.49-.134-.759,0-.026-.007-.056-.011-.082-.031-.219-.059-.448-.084-.685-.008-.078-.016-.159-.023-.239-.019-.2-.037-.4-.053-.614-.007-.092-.013-.184-.019-.278q-.022-.335-.039-.691c0-.084-.009-.164-.012-.25-.014-.326-.026-.661-.034-1.011l-.778-28.671-.013-.026h0l.013.026c1.916,2.155,8.679,9.7,15.623,17.179,6.344,6.824,14.964,15.623,15.622,16.221,3.172,3.173,3.891,3.831,4.37,3.831a.413.413,0,0,0,.147-.022l-.011-.027h0l.011.026a.237.237,0,0,0,.054-.028.317.317,0,0,0,.094-.109.856.856,0,0,0,.076-.2,17.322,17.322,0,0,0,.167-3.277q0-.291,0-.614l.12-34.957h0c0-.273,0-.532,0-.782,0-.082,0-.158,0-.238,0-.176,0-.348,0-.513,0-.086,0-.167,0-.251q0-.221.009-.429c0-.082,0-.162.007-.241,0-.131.009-.256.016-.378,0-.073.007-.146.012-.216.008-.124.017-.242.027-.357.005-.057.009-.116.015-.17q.023-.226.056-.427c0-.012,0-.026.005-.038.024-.145.053-.28.086-.407.009-.035.02-.066.03-.1.025-.088.051-.173.081-.252.01-.028.023-.053.034-.08a1.948,1.948,0,0,1,.211-.388l0-.006a1.453,1.453,0,0,1,.288-.289c.019-.015.037-.03.057-.044a1.6,1.6,0,0,1,.362-.188c.024-.009.05-.017.076-.025a2.539,2.539,0,0,1,.474-.108c.539-.06,1.437-.12,1.975-.12a.854.854,0,0,0,.4-.067.132.132,0,0,0,.082-.112.094.094,0,0,0,0-.024ZM611.795,1048.3c-.245.033-.488.055-.728.07l-.187.011c-.242.011-.482.019-.714.019h0a33.671,33.671,0,0,1-3.808-.195,7.471,7.471,0,0,1-2.6-.643.541.541,0,0,1-.3-.439h0c0-.013,0-.026,0-.04V1034.02h0v-6.9h0v-.084a.6.6,0,0,1,.091-.369h0a.834.834,0,0,1,.387-.229,18.057,18.057,0,0,1,4.011-.359,11.6,11.6,0,0,1,3.206.433c.135.039.267.084.4.128.167.056.333.114.494.178.132.052.263.105.391.163.167.075.329.157.49.241.108.056.218.109.323.168.243.139.477.29.7.45.1.07.193.147.289.221.144.111.286.226.423.345.1.085.19.171.283.259.139.133.272.271.4.414.075.082.153.159.225.244q.283.331.539.694c.058.083.111.171.167.256.119.18.233.364.342.555.06.1.117.212.174.32.1.2.2.4.292.6.044.1.09.193.132.293.125.3.242.612.346.934.024.076.044.156.068.233q.118.391.217.8c.029.12.054.241.08.364q.081.381.143.778c.019.117.039.231.055.349a18.693,18.693,0,0,1,.17,2.547c0,4.549-1.556,7.781-3.651,9.218A6.459,6.459,0,0,1,611.795,1048.3Zm48.828,1.3H648.831a.111.111,0,0,1-.082-.023h0c-.03-.032-.017-.1.022-.216h0l5.328-16.341c.207-.624.312-.952.423-.964.025,0,.051.016.079.046.008.009.017.022.026.035a.891.891,0,0,1,.078.136l.01.019c.035.076.074.173.119.287l.011.029c.045.119.095.254.152.412l5.747,16.341a.558.558,0,0,1,.052.187h0C660.787,1049.583,660.742,1049.6,660.623,1049.6Zm57.955,11.817h0l-.013-.024h0Zm7.166-37.041h0Z" transform="translate(-506.97 -965.43)"/><path class="a" d="M875.993,1048.149q.03-.628.03-1.274h0a21.386,21.386,0,0,0-5.806-15.2c-.389-.4-.791-.776-1.2-1.132-.037-.033-.073-.067-.11-.1-.392-.336-.795-.648-1.2-.944-.058-.042-.115-.085-.173-.126-.4-.284-.81-.549-1.224-.8-.067-.041-.134-.081-.2-.12q-.622-.365-1.259-.683l-.2-.1q-.648-.315-1.308-.586l-.165-.065q-.684-.274-1.377-.506l-.081-.026a28.129,28.129,0,0,0-2.939-.788l-.049-.012h0a58.63,58.63,0,0,0-12.51-.839c-.619,0-1.242.005-1.855.014h0l-.145,0h-.055l-.6.011h-.034c-2.241.043-4.221.124-5.069.145h0l-.178,0h-.138c-.778,0-2.993-.179-6.764-.179-.681,0-.931.108-.956.22a.118.118,0,0,0,0,.019h0c0,.12.24.179.778.179a10.707,10.707,0,0,1,1.676.12,3.38,3.38,0,0,1,.625.157c.06.021.113.049.17.073a2.719,2.719,0,0,1,.353.177c.057.035.111.074.164.112a2.567,2.567,0,0,1,.27.231c.045.044.09.087.131.135a2.653,2.653,0,0,1,.234.319c.025.04.056.076.079.118a3.542,3.542,0,0,1,.233.5c.017.047.03.1.046.147.046.137.089.278.124.426.018.075.032.152.047.229.022.111.041.225.058.341.045.3.079.6.1.924.12,1.916.12,3.592.12,12.93v10.534c0,5.747,0,10.475-.3,12.989,0,.035-.01.07-.015.1-.237,1.705-.548,3.492-1.721,3.726a9.044,9.044,0,0,1-1.8.12c-.419,0-.479.12-.479.179a.1.1,0,0,0,.021.06h0c.055.076.254.18.936.18,1.8,0,5.567-.18,5.866-.18s2.335.18,4.969.359c.638.045,1.314.089,2.006.131l.143.008.88.051.318.016c.241.013.481.026.723.037l.388.017.66.028.42.015.611.02.44.011.573.013.432.006.354,0v0l.37,0c10.176,0,15.563-4.19,18.137-6.884a24.334,24.334,0,0,0,6.432-15.606Zm-22.571-20.637.035.006a20.44,20.44,0,0,1,11.432,6.13c.17.178.344.369.521.57.036.041.073.086.109.129.138.159.277.324.417.5.054.066.108.137.163.206.125.16.251.324.377.494.059.08.117.161.177.243.123.173.247.352.369.534.058.087.116.173.173.262.13.2.257.408.384.62.047.079.095.156.142.236.168.289.333.588.493.9l.013.023q.252.491.488,1.019c.03.066.057.135.086.2.121.28.24.565.353.86a22.956,22.956,0,0,1,1.483,8.29c0,5.507-1.677,11.253-4.788,14.306a18.936,18.936,0,0,1-8.227,4.737h0c-.43.123-.867.228-1.308.323l-.288.061a21.994,21.994,0,0,1-2.717.376l-.309.021c-.463.028-.929.047-1.4.047h0c-4.5,0-6.979-.456-8.415-1.066a3.789,3.789,0,0,1-1.76-1.329,1.1,1.1,0,0,1-.079-.15c-.015-.032-.03-.065-.045-.1s-.037-.1-.054-.158c-.013-.04-.026-.079-.038-.123-.018-.066-.035-.136-.052-.208-.01-.044-.02-.086-.03-.133-.017-.084-.034-.173-.05-.264-.007-.042-.016-.081-.022-.124-.018-.11-.035-.225-.051-.342,0-.028-.008-.054-.012-.083-.06-.452-.108-.944-.144-1.427h0c-.039-.513-.065-1.013-.082-1.437-.06-1.137-.12-6.644-.12-12.989v-7.422c0-3.251.03-7.246.047-10.116.008-1.2.013-2.2.013-2.873,0-.087,0-.16.008-.228,0-.013,0-.026,0-.038a.786.786,0,0,1,.035-.175c.068-.2.23-.313.615-.491l-.019-.023h0l.019.023.056-.025a15.968,15.968,0,0,1,3.891-.419A43.258,43.258,0,0,1,853.421,1027.511Z" transform="translate(-606.752 -966.12)"/><path class="a" d="M960.519,1068.709h0Z" transform="translate(-661.542 -984.595)"/><path class="a" d="M949.7,1069.172h0c0-.119-.18-.179-.658-.179h0a8.86,8.86,0,0,1-2.634-.3c-.2-.068-.378-.137-.549-.209-.046-.019-.09-.038-.134-.058-.151-.067-.295-.137-.428-.212l-.047-.025a3.8,3.8,0,0,1-.4-.272c-.032-.025-.064-.051-.1-.077a3.616,3.616,0,0,1-.307-.284c-.019-.02-.038-.037-.057-.057a4.335,4.335,0,0,1-.323-.4c-.026-.036-.052-.075-.077-.113-.087-.128-.172-.265-.258-.413-.021-.037-.043-.072-.064-.11-.1-.184-.2-.383-.31-.6l-.075-.161c-.089-.189-.181-.391-.276-.608-.028-.065-.056-.127-.085-.194-.056-.131-.115-.272-.175-.413-.039-.093-.077-.182-.117-.279-.068-.165-.14-.342-.213-.521l-.109-.266-.3-.745-.444-1.1c-3.651-9.1-13.049-33.82-13.827-35.795-.9-2.215-1.2-2.574-1.437-2.574h-.021l0,.036h0l0-.037c-.24.024-.6.481-1.356,2.632l-.5,1.375h0l-13.025,35.617q-.256.7-.507,1.32c-.051.126-.1.234-.155.355-1.134,2.675-2.291,4.12-4.247,4.371a11.469,11.469,0,0,1-1.8.119c-.41,0-.59.057-.6.172h0v.008c0,.06.179.24,1.018.24,1.616,0,6.345-.179,6.884-.179.658,0,2.454.179,4.669.179.719,0,.9-.179.9-.24h0c0-.119-.24-.179-.6-.179a7.685,7.685,0,0,1-1.8-.18,2.065,2.065,0,0,1-.328-.112c-.028-.013-.052-.028-.08-.041a1.478,1.478,0,0,1-.195-.115c-.027-.019-.052-.039-.078-.06a1.328,1.328,0,0,1-.149-.146c-.02-.023-.04-.045-.059-.069a1.41,1.41,0,0,1-.135-.22c-.006-.013-.014-.024-.02-.036a1.748,1.748,0,0,1-.105-.312c-.006-.022-.008-.047-.013-.07a2.5,2.5,0,0,1-.043-.29c0-.038,0-.078-.007-.118,0-.1-.005-.195,0-.3,0-.044,0-.088,0-.134.007-.116.018-.238.033-.364,0-.035.006-.068.012-.1.027-.2.067-.423.115-.654.009-.044.019-.09.029-.135.048-.221.1-.451.169-.7l.015-.06c.069-.259.15-.534.237-.821l.069-.224c.085-.271.174-.551.272-.846.006-.02.012-.039.019-.059l3.652-10.775c.072-.179.1-.251.138-.28h0a.154.154,0,0,1,.1-.019h13.435a.255.255,0,0,1,.135.02h0c.032.021.048.066.079.159l5.627,14.9c.418,1.2-.06,1.556-.359,1.735-.228.114-.4.174-.417.283h.039c-.013,0-.026,0-.039,0a.084.084,0,0,0,0,.017c0,.12.179.359,1.8.418,4.13.18,8.38.12,9.7.12.709,0,.871-.149.895-.221h0a.057.057,0,0,0,0-.018Zm-18.144-19.626c-.008.037-.053.052-.172.052H919.594a.112.112,0,0,1-.081-.023c-.03-.032-.017-.1.022-.216h0l5.327-16.341c.208-.624.313-.952.424-.964.026,0,.051.016.078.046a.29.29,0,0,1,.026.035.84.84,0,0,1,.078.136l.01.019c.035.076.074.173.119.287l.011.029c.045.119.094.254.152.412l5.747,16.341a.557.557,0,0,1,.053.187l.022.022h0Z" transform="translate(-637.78 -965.43)"/></g></g></svg>