<svg xmlns="http://www.w3.org/2000/svg" width="30" height="1002" viewBox="0 0 30 1002"><defs><style>.a,.d,.e{fill:#fff;}.b{opacity:0.502;}.c,.g{fill:none;}.c{stroke:#fff;}.d{mix-blend-mode:multiply;isolation:isolate;}.e{font-size:30px;font-family:FontAwesome5Free-Solid, 'Font Awesome \35  Free';letter-spacing:0.01em;}.f{stroke:none;}</style></defs><g transform="translate(4276.48 -503.5) rotate(90)"><g transform="translate(429.5 -422.519)"><g transform="translate(-131.267 1.733)"><circle class="a" cx="7" cy="7" r="7" transform="translate(671.267 4675.267)"/></g><g class="b" transform="translate(-101.267 1.733)"><circle class="a" cx="7" cy="7" r="7" transform="translate(671.267 4675.267)"/></g><g class="b" transform="translate(-73.267 1.733)"><circle class="a" cx="7" cy="7" r="7" transform="translate(671.267 4675.267)"/></g><g class="c" transform="translate(538 4675)"><circle class="f" cx="9" cy="9" r="9"/><circle class="g" cx="9" cy="9" r="8.5"/></g></g><g transform="translate(1476.5 4246.48)"><rect class="d" width="29" height="29" rx="6" transform="translate(0 0.353)"/><text class="e" transform="translate(16 26)"><tspan x="-5.625" y="0"></tspan></text></g><g transform="translate(-397.5 -393.167)"><rect class="d" width="29" height="29" rx="6" transform="translate(901 4640)"/><text class="e" transform="matrix(-1, 0, 0, 1, 914, 4665.647)"><tspan x="-5.625" y="0"></tspan></text></g></g></svg>